<svg version="1.1" id="Layer_1" xmlns="http://www.w3.org/2000/svg" x="0" y="0" viewBox="0 0 10 10" xml:space="preserve"><style>.st0{fill:#a35dff}</style><path class="st0" d="M6.5 5.8c.7 2.8 1 2.6-1.5 1.1-2.5 1.5-2.1 1.7-1.5-1.1-2.2-1.9-2.3-1.5.6-1.7 1.1-2.7.7-2.7 1.8 0 2.9.2 2.8-.2.6 1.7m2-1.6c-.2-.4-.6-.4-.9-.4-.5 0-.9-.1-1.4-.1-.2-.4-.4-.9-.5-1.3-.2-.3-.3-.7-.7-.7-.4 0-.5.4-.7.7-.1.4-.3.9-.5 1.3-.5 0-.9.1-1.4.1-.3 0-.8 0-.9.4-.1.3.3.6.5.8.4.3.7.6 1.1.9-.1.5-.2.9-.3 1.4-.1.3-.2.7.1.9.3.2.7 0 1-.2.3-.2.7-.5 1.1-.7.4.2.8.5 1.2.7.3.2.7.4 1 .2.3-.2.2-.7.1-1-.2-.4-.3-.8-.4-1.3.3-.3.7-.6 1.1-.9.2-.2.6-.5.5-.8"/><path class="st0" d="M6.5 5.8c.1.6.2 1 .3 1.4.1.3.1.6.1.7V8s-.1 0-.2-.1c-.3-.2-.8-.6-1.7-1.1-.6.3-1 .6-1.3.8-.2.1-.3.2-.4.2-.1 0-.2.1-.2.1v-.1c0-.1.1-.3.1-.7.1-.3.2-.8.4-1.4-.6-.4-1-.7-1.2-1-.2-.1-.3-.2-.4-.3 0 0-.1-.1 0-.1 0 0 .1 0 .2-.1.3 0 1-.1 1.9-.1.3-.7.5-1.2.6-1.5.1-.2.1-.3.2-.4 0 0 0-.1.1-.1.1.1.2.3.3.6.1.3.3.8.6 1.4.8.1 1.3.1 1.7.1.2 0 .3 0 .4.1h.1s0 .1-.1.1c-.3.3-.8.7-1.5 1.4.6-.4 1-.7 1.3-1 .1-.1.2-.2.2-.3.1-.1.1-.1.1-.2 0 0 0-.1-.1-.1 0 0 0-.1-.1-.1-.3 0-1-.1-1.9-.1v.1V4c-.3-.6-.5-1.1-.6-1.5-.1-.1-.2-.3-.2-.4L5.1 2h-.2c-.1.1-.2.3-.3.7-.1.3-.3.7-.6 1.3h.1v-.1c-.8.2-1.3.2-1.7.2-.2 0-.3 0-.4.1 0 0-.1 0-.1.1l-.1.1c0 .1.1.1.1.2.2.2.7.6 1.5 1.3h-.1c-.1.6-.3 1-.4 1.4.1.2.1.4.1.5V8h.1c.1 0 .1 0 .2-.1.3-.2.8-.5 1.7-1 .6.3 1 .6 1.3.8.2.1.3.2.4.2 0 .1.1.1.2.1 0 0 .1 0 .1-.1v-.1c0-.1 0-.4-.1-.7-.1-.3-.2-.8-.4-1.3zm2-1.6c0-.2-.2-.3-.4-.4-.2-.1-.4-.1-.5-.1v.1-.1c-.5 0-.9-.1-1.4-.1v.1h.1c-.2-.5-.4-.9-.6-1.3h-.1.1c0-.2-.1-.3-.2-.5s-.3-.3-.5-.3-.4.1-.5.3c-.1.2-.2.3-.2.5-.2.4-.3.8-.5 1.3h.1v-.1c-.5 0-.9.1-1.4.1v.1-.1c-.2 0-.4 0-.5.1-.3 0-.4.1-.5.4v.2c0 .3.3.6.5.8.4.2.7.5 1.1.8H3c-.1.3-.2.8-.3 1.2 0 .2-.1.4-.1.6 0 .2.1.4.2.5.1.1.2.1.3.1.3 0 .5-.2.7-.3.5-.3.8-.5 1.2-.8.4.2.8.5 1.2.7.2.1.5.3.7.3.1 0 .2 0 .3-.1.1 0 .2-.2.2-.4s-.1-.4-.1-.6c-.1-.4-.2-.9-.4-1.3h-.1c.5-.2.8-.5 1.2-.8.2-.2.5-.4.5-.8v-.1.1c0 .3-.3.5-.5.7-.4.3-.8.6-1.1.9.1.4.2.9.3 1.3h.1-.1c0 .2.1.4.1.5 0 .2 0 .3-.2.4-.1.1-.1.2-.2.2-.3 0-.5-.2-.7-.3-.4-.3-.8-.5-1.2-.8-.4.3-.8.5-1.2.8-.2.1-.5.3-.7.3-.1 0-.1 0-.2-.1s-.2-.2-.2-.4.1-.4.1-.5c.1-.5.2-.9.4-1.3-.4-.4-.8-.7-1.1-1-.2-.2-.5-.4-.5-.7v-.1c0-.2.2-.2.3-.3.2 0 .4-.1.5-.1.5 0 .9-.1 1.4-.1.2-.4.3-.9.5-1.3.2-.1.2-.3.3-.4.1-.2.2-.3.4-.3s.3.1.4.2c.1.1.2.3.2.5.2.4.3.8.5 1.3.5 0 .9.1 1.4.1.2 0 .4 0 .5.1.2.1.4.1.5.3z"/><path class="st0" d="M6.5 5.8c.7 2.8 1 2.6-1.5 1.1-2.5 1.5-2.1 1.7-1.5-1.1-2.2-1.9-2.3-1.5.6-1.7 1.1-2.7.7-2.7 1.8 0 2.9.2 2.8-.2.6 1.7m2-1.6c-.2-.4-.6-.4-.9-.4-.5 0-.9-.1-1.4-.1-.2-.4-.4-.9-.5-1.3-.2-.3-.3-.7-.7-.7-.4 0-.5.4-.7.7-.1.4-.3.9-.5 1.3-.5 0-.9.1-1.4.1-.3 0-.8 0-.9.4-.1.3.3.6.5.8.4.3.7.6 1.1.9-.1.5-.2.9-.3 1.4-.1.3-.2.7.1.9.3.2.7 0 1-.2.3-.2.7-.5 1.1-.7.4.2.8.5 1.2.7.3.2.7.4 1 .2.3-.2.2-.7.1-1-.2-.4-.3-.8-.4-1.3.3-.3.7-.6 1.1-.9.2-.2.6-.5.5-.8"/><path class="st0" d="M6.5 5.8c.1.6.2 1 .3 1.4.1.3.1.6.1.7V8s-.1 0-.2-.1c-.3-.2-.8-.6-1.7-1.1-.6.3-1 .6-1.3.8-.2.1-.3.2-.4.2-.1 0-.2.1-.2.1v-.1c0-.1.1-.3.1-.7.1-.3.2-.8.4-1.4-.6-.4-1-.7-1.2-1-.2-.1-.3-.2-.4-.3 0 0-.1-.1 0-.1 0 0 .1 0 .2-.1.3 0 1-.1 1.9-.1.3-.7.5-1.2.6-1.5.1-.2.1-.3.2-.4 0 0 0-.1.1-.1.1.1.2.3.3.6.1.3.3.8.6 1.4.8.1 1.3.1 1.7.1.2 0 .3 0 .4.1h.1s0 .1-.1.1c-.3.3-.8.7-1.5 1.4.6-.4 1-.7 1.3-1 .1-.1.2-.2.2-.3.1-.1.1-.1.1-.2 0 0 0-.1-.1-.1 0 0 0-.1-.1-.1-.3 0-1-.1-1.9-.1v.1V4c-.3-.6-.5-1.1-.6-1.5-.1-.1-.2-.3-.2-.4L5.1 2h-.2c-.1.1-.2.3-.3.7-.1.3-.3.7-.6 1.3h.1v-.1c-.8.2-1.3.2-1.7.2-.2 0-.3 0-.4.1 0 0-.1 0-.1.1l-.1.1c0 .1.1.1.1.2.2.2.7.6 1.5 1.3h-.1c-.1.6-.3 1-.4 1.4.1.2.1.4.1.5V8h.1c.1 0 .1 0 .2-.1.3-.2.8-.5 1.7-1 .6.3 1 .6 1.3.8.2.1.3.2.4.2 0 .1.1.1.2.1 0 0 .1 0 .1-.1v-.1c0-.1 0-.4-.1-.7-.1-.3-.2-.8-.4-1.3zm2-1.6c0-.2-.2-.3-.4-.4-.2-.1-.4-.1-.5-.1v.1-.1c-.5 0-.9-.1-1.4-.1v.1h.1c-.2-.5-.4-.9-.6-1.3h-.1.1c0-.2-.1-.3-.2-.5s-.3-.3-.5-.3-.4.1-.5.3c-.1.2-.2.3-.2.5-.2.4-.3.8-.5 1.3h.1v-.1c-.5 0-.9.1-1.4.1v.1-.1c-.2 0-.4 0-.5.1-.3 0-.4.1-.5.4v.2c0 .3.3.6.5.8.4.2.7.5 1.1.8H3c-.1.3-.2.8-.3 1.2 0 .2-.1.4-.1.6 0 .2.1.4.2.5.1.1.2.1.3.1.3 0 .5-.2.7-.3.5-.3.8-.5 1.2-.8.4.2.8.5 1.2.7.2.1.5.3.7.3.1 0 .2 0 .3-.1.1 0 .2-.2.2-.4s-.1-.4-.1-.6c-.1-.4-.2-.9-.4-1.3h-.1c.5-.2.8-.5 1.2-.8.2-.2.5-.4.5-.8v-.1.1c0 .3-.3.5-.5.7-.4.3-.8.6-1.1.9.1.4.2.9.3 1.3h.1-.1c0 .2.1.4.1.5 0 .2 0 .3-.2.4-.1.1-.1.2-.2.2-.3 0-.5-.2-.7-.3-.4-.3-.8-.5-1.2-.8-.4.3-.8.5-1.2.8-.2.1-.5.3-.7.3-.1 0-.1 0-.2-.1s-.2-.2-.2-.4.1-.4.1-.5c.1-.5.2-.9.4-1.3-.4-.4-.8-.7-1.1-1-.2-.2-.5-.4-.5-.7v-.1c0-.2.2-.2.3-.3.2 0 .4-.1.5-.1.5 0 .9-.1 1.4-.1.2-.4.3-.9.5-1.3.2-.1.2-.3.3-.4.1-.2.2-.3.4-.3s.3.1.4.2c.1.1.2.3.2.5.2.4.3.8.5 1.3.5 0 .9.1 1.4.1.2 0 .4 0 .5.1.2.1.4.1.5.3z"/></svg>