<svg version="1.1" id="Layer_1" xmlns="http://www.w3.org/2000/svg" xmlns:xlink="http://www.w3.org/1999/xlink" x="0" y="0" viewBox="0 0 512 512" xml:space="preserve"><style>.st1{display:none}.st2{display:inline}.st3{fill:#fff}</style><g id="Layer_1_1_"><path d="M256 8C119 8 8 119 8 256s111 248 248 248 248-111 248-248S393 8 256 8z" opacity=".2"/><g class="st1"><g class="st2"><path class="st3" d="M-1.7-291c-30 0-54.3 24.3-54.3 54.3s24.3 54.3 54.3 54.3 54.3-24.3 54.3-54.3S28.3-291-1.7-291z" transform="matrix(.6 0 0 .6 255.4 256)"/></g></g></g><g id="Layer_2_1_" class="st1"><g class="st2" fill="none" stroke="#fff" stroke-width="56" stroke-linecap="round"><path d="M201 207h64v172" stroke-linejoin="round"/><path d="M192 383h138" stroke-miterlimit="10"/></g></g><g class="st1"><defs><path id="SVGID_1_" d="M88.5 81h336v336h-336z"/></defs><clipPath id="SVGID_2_" class="st2"><use xlink:href="#SVGID_1_" overflow="visible"/></clipPath><path d="M379.5 368.9V111c0-9.9-8.1-18-18-18h-204c-9.9 0-18 8.1-18 18v264c.1 16.5 13.5 29.9 30 30m-3 0h189.3c12.8 0 23.3-10.3 23.6-23.1.1-4 .1-8.4.1-12.9V153" clip-path="url(#SVGID_2_)" fill="none" stroke="#fff" stroke-width="17" stroke-linejoin="round"/></g><path class="st3" d="M398.4 377.4V191.2c0-11.2-4.4-21.9-12.4-29.9L336.6 112c-9.6-9.6-22.6-15-36.2-15H148.9c-10.6 0-19.2 8.6-19.2 19.2v268.6c0 10.6 8.6 19.2 19.2 19.2h222.9c14.7 0 26.6-11.9 26.6-26.6zm-27.2-203.6h-49.5v-49.5h.1l49.4 49.5c0-.1 0 0 0 0zm-14.8 211H171.6c-12.5 0-22.7-10.1-22.7-22.7V134.9c0-10.3 8.4-18.7 18.7-18.7h111.8c12.7 0 23 10.3 23 23v34.5c0 10.6 8.6 19.2 19.2 19.2h57.5V362c.1 12.6-10.1 22.8-22.7 22.8zm-178.7-57.6h172.4c5.2 0 9.7 4 9.9 9.2.2 5.5-4.1 10-9.6 10H178c-5.2 0-9.7-4-9.9-9.2-.2-5.4 4.2-10 9.6-10zm0-57.5h172.4c5.2 0 9.7 4 9.9 9.2.2 5.5-4.1 10-9.6 10H178c-5.2 0-9.7-4-9.9-9.2-.2-5.5 4.2-10 9.6-10zm0-57.6h172.4c5.2 0 9.7 4 9.9 9.2.2 5.5-4.1 10-9.6 10H178c-5.2 0-9.7-4-9.9-9.2-.2-5.5 4.2-10 9.6-10z"/></svg>