<svg xmlns="http://www.w3.org/2000/svg" viewBox="0 0 512 512"><style>.st1{fill:#fff}.st2{fill:#f9f9f9}</style><g id="Layer_1"><path d="M256 8C119 8 8 119 8 256s111 248 248 248 248-111 248-248S393 8 256 8z" opacity=".2"/><path class="st1" d="M0-176c-52.9 0-96 43.1-96 96 0 8.8 7.2 16 16 16s16-7.2 16-16c0-35.3 28.7-64 64-64 8.8 0 16-7.2 16-16s-7.2-16-16-16zm-79.9 379.2c0 3.1.9 6.2 2.7 8.8l24.5 36.8c3 4.5 8 7.1 13.3 7.1h78.9c5.4 0 10.4-2.7 13.3-7.1L77.3 212c1.7-2.6 2.7-5.7 2.7-8.8V160H-80l.1 43.2zM0-256c-102.3 0-176 83-176 176 0 44.4 16.4 84.9 43.6 115.8 16.6 19 42.7 58.8 52.4 92.2v.1h48v-.1c0-4.8-.7-9.5-2.1-14.1C-39.8 96-57 49-96.3 4.1-116.9-19.3-127.9-49-128-80c-.2-73.6 59.7-128 128-128 70.6 0 128 57.4 128 128 0 31-11.2 60.8-31.6 84.1-39.2 44.7-56.5 91.5-62.2 109.5-1.5 4.6-2.2 9.4-2.2 14.3v.1h48c9.7-33.4 35.8-73.2 52.4-92.2C159.5 4.9 176-35.6 176-80c0-97.2-78.8-176-176-176z" transform="matrix(.6 0 0 .6 256 256)"/><path class="st1" d="M103.3 222.6H77.7h25.6z"/><path class="st2" d="M103.3 232.6H77.7c-5.5 0-10-4.5-10-10s4.5-10 10-10h25.7c5.5 0 10 4.5 10 10s-4.5 10-10.1 10z"/><path class="st1" d="M126.4 123.1l-17-14.1 17 14.1z"/><path class="st2" d="M126.3 133.1c-2.3 0-4.5-.8-6.4-2.3l-17-14.1c-2.4-2-3.6-4.8-3.6-7.7 0-2.3.8-4.5 2.3-6.4 3.5-4.2 9.8-4.8 14.1-1.3l17 14.1c2.4 2 3.6 4.8 3.6 7.7 0 2.3-.8 4.5-2.3 6.4-1.9 2.4-4.8 3.6-7.7 3.6z"/><path class="st1" d="M431.4 222.8h-25.7 25.7z"/><path class="st2" d="M431.4 232.8h-25.7c-5.5 0-10-4.5-10-10s4.5-10 10-10h25.7c5.5 0 10 4.5 10 10s-4.5 10-10 10z"/><path class="st1" d="M387 122.8l17-14.1-17 14.1z"/><path class="st2" d="M387.1 132.8c-2.9 0-5.7-1.2-7.7-3.6-1.6-1.9-2.3-4.1-2.3-6.4 0-2.9 1.2-5.7 3.6-7.7l17-14.1c4.2-3.5 10.6-2.9 14.1 1.3 1.6 1.9 2.3 4.1 2.3 6.4 0 2.9-1.2 5.7-3.6 7.7l-17 14.1c-1.9 1.6-4.2 2.3-6.4 2.3z"/><path class="st1" d="M111.9 326.5l17-14.1-17 14.1z"/><path class="st2" d="M111.9 336.5c-2.9 0-5.7-1.2-7.7-3.6-1.6-1.9-2.3-4.1-2.3-6.4 0-2.9 1.2-5.7 3.6-7.7l17-14.1c4.2-3.5 10.6-2.9 14.1 1.3 1.6 1.9 2.3 4.1 2.3 6.4 0 2.9-1.2 5.7-3.6 7.7l-17 14.1c-1.9 1.6-4.1 2.3-6.4 2.3z"/><path class="st1" d="M400.6 326.3l-17-14.1 17 14.1z"/><path class="st2" d="M400.6 336.3c-2.3 0-4.5-.8-6.4-2.3l-17-14.1c-2.4-2-3.6-4.8-3.6-7.7 0-2.3.8-4.5 2.3-6.4 3.5-4.2 9.8-4.8 14.1-1.3l17 14.1c2.4 2 3.6 4.8 3.6 7.7 0 2.3-.8 4.5-2.3 6.4-2 2.3-4.9 3.6-7.7 3.6z"/></g></svg>