<svg xmlns="http://www.w3.org/2000/svg" viewBox="0 0 512 512"><path d="M256 8C119 8 8 119 8 256s111 248 248 248 248-111 248-248S393 8 256 8z" opacity=".2"/><path d="M359.6 105.2c-1-1.8-2.9-2.8-4.9-2.8H238c-2.4 0-4.6 1.5-5.4 3.9l-50 148.2c-.6 1.7-.3 3.6.8 5.1 1.1 1.5 2.8 2.4 4.6 2.4h47.4l-54.6 146c-1 2.6.1 5.5 2.5 6.9.9.5 1.9.8 2.8.8 1.6 0 3.2-.7 4.3-2l151.9-181.5c1.4-1.7 1.7-4 .8-6-.9-2-2.9-3.3-5.1-3.3h-43.9L359.5 111c1.1-1.8 1.1-4 .1-5.8z" fill="#fff"/><path d="M183.4 419.5l106.3-106.8c4.4-4.4 1.2-11.8-4.9-11.8h-8.5c-5.8 0-9-6.7-5.4-11.2l56.4-71.1c3.6-4.5.4-11.2-5.4-11.2h-28.3c-5.7 0-9-6.5-5.5-11.1l72-95.8c3.4-4.6.2-11.1-5.5-11.1h-114c-2.6 0-5.1 1.5-6.2 3.8l-55.7 112.7c-2.3 4.6 1.1 10 6.2 10h25.7c5.1 0 8.5 5.4 6.2 10l-38.1 77c-2.3 4.6 1.1 10 6.2 10h24.2c5.1 0 8.4 5.3 6.2 9.9l-43 88.7c-3.4 7.1 5.6 13.5 11.1 8z" fill="#fff"/></svg>