<svg version="1.1" id="Layer_1" xmlns="http://www.w3.org/2000/svg" x="0" y="0" viewBox="0 0 512 512" xml:space="preserve"><style>.st1{fill:#fff}</style><path d="M256 8C119 8 8 119 8 256s111 248 248 248 248-111 248-248S393 8 256 8z" opacity=".2"/><ellipse class="st1" cx="256.8" cy="357.8" rx="43.2" ry="44.2"/><path class="st1" d="M203.4 115.9c-.4 2.3-.3 4.7.1 7.1l22.7 147.7c.3 7.7 5.8 13.7 12.3 13.7h34.2c6.6 0 12-6 12.3-13.7l22.7-147.6c.4-2.8.5-5.6-.1-8.4-1.9-8.9-8.9-15.6-17.2-15.6H221c-8.9 0-16.1 7.3-17.6 16.8z"/></svg>