<svg xmlns="http://www.w3.org/2000/svg" width="31.395" height="31.689" viewBox="0 0 31.395 31.689"><g opacity=".54" fill="#fff"><path d="M23.484 27.728a3.955 3.955 0 113.955 3.961 3.958 3.958 0 01-3.955-3.961m-4.944 3.713h1.978V9.655H18.54zm-3.955 0h1.978V9.655h-1.978zm-3.955 0h1.978V9.655H10.63z"/><path d="M0 9.903h31.148V7.922H0zm0-3.962h31.148v-1.98H0zM0 1.98h31.148V0H0zm23.484 25.748a3.955 3.955 0 113.955 3.961 3.958 3.958 0 01-3.955-3.961"/><path d="M18.54 31.441h1.978V9.655H18.54zm-3.955 0h1.978V9.655h-1.978zm-3.955 0h1.978V9.655H10.63z"/><path d="M0 9.903h31.148V7.922H0zm0-3.962h31.148v-1.98H0zM0 1.98h31.148V0H0z"/></g></svg>