<svg version="1.1" id="Layer_1" xmlns="http://www.w3.org/2000/svg" x="0" y="0" viewBox="0 0 10 10" xml:space="preserve"><style>.st0{fill:#06bf7f}</style><path class="st0" d="M6.7 4.1c0 .4-.1.7-.3 1-.7.9-.7 1.1-.7 1.5v.1H4.4s-.1 0-.1-.1c0-.4-.1-.6-.7-1.4-.2-.3-.3-.7-.3-1 0-1 .8-1.7 1.7-1.7 1-.2 1.7.6 1.7 1.6m.4 0C7.1 2.9 6.1 2 5 2s-2.1.9-2.1 2.1c0 .4.1.9.4 1.2.7.9.7 1 .7 1.3 0 .1.1.4.4.4h1.2c.1 0 .2-.1.3-.1.1-.2.1-.3.1-.3 0-.3 0-.4.7-1.3.2-.4.4-.8.4-1.2"/><path class="st0" d="M5 2.3c-.9 0-1.7.8-1.7 1.7 0 .4.1.7.3 1 .6.9.7 1 .7 1.5 0 0 0 .1.1.1h1.2c0-.4.1-.6.7-1.5.2-.3.3-.7.3-1 .1-1-.7-1.8-1.6-1.8m.6 4.4H4.4s-.1 0-.1-.1c0-.4-.1-.6-.7-1.4-.2-.4-.3-.8-.3-1.1 0-1 .8-1.8 1.7-1.8s1.7.8 1.7 1.8c0 .4-.1.7-.4 1.1-.5.8-.6 1-.7 1.5zM5 2c-1.1 0-2 .9-2 2.1 0 .4.1.9.4 1.2.6.9.6 1 .6 1.3 0 .1.1.4.4.4h1.2c.1 0 .2-.1.3-.1.1-.2.1-.3.1-.3 0-.3 0-.4.7-1.3.2-.4.3-.8.3-1.2C7 2.9 6.1 2 5 2m.6 5H4.4c-.3 0-.4-.3-.4-.4 0-.3 0-.4-.7-1.3-.2-.4-.4-.8-.4-1.2C2.9 2.9 3.9 2 5 2s2.1.9 2.1 2.1c0 .5-.1.9-.4 1.2-.6.9-.7 1-.7 1.3 0 0 0 .2-.1.3 0 0-.1.1-.3.1"/><path class="st0" d="M3.7 5.1c.6.9.7 1.1.7 1.5h1.2c0-.4.1-.6.7-1.5.2-.3.3-.7.3-1 0-.9-.8-1.7-1.7-1.7s-1.6.7-1.6 1.7c0 .3.1.7.4 1zm1.9 1.6H4.4c-.1 0-.1 0-.1-.1 0-.4-.1-.6-.7-1.4-.2-.4-.4-.8-.4-1.1 0-1 .8-1.8 1.8-1.8s1.8.8 1.8 1.8c0 .4-.1.8-.4 1.1-.6.8-.7 1-.7 1.4l-.1.1c.1 0 0 0 0 0M5 2c-1.1 0-2 .9-2 2 0 .4.1.8.4 1.2.6 1 .6 1.1.6 1.4 0 .1.1.4.4.4h1.2c.1 0 .2-.1.3-.1.1-.2.1-.3.1-.3 0-.3 0-.4.7-1.3.2-.4.3-.8.3-1.2C7 2.9 6.1 2 5 2m.6 5H4.4c-.3 0-.4-.2-.4-.4 0-.3 0-.4-.7-1.2-.3-.5-.4-.9-.4-1.3C2.9 2.9 3.8 2 5 2s2.1 1 2.1 2.1c0 .5-.1.9-.4 1.3-.6.8-.7.9-.7 1.2 0 0 0 .2-.1.3 0 .1-.1.1-.3.1"/><path class="st0" d="M4.4 6.6h1.2c0-.4.1-.6.7-1.5.2-.3.3-.6.3-1 0-.9-.8-1.7-1.7-1.7s-1.6.7-1.6 1.7c0 .4.1.7.3 1 .7.9.8 1.1.8 1.5zm1.2 0H4.4l-.1-.1c0-.4-.1-.6-.7-1.5-.2-.3-.3-.7-.3-1 0-1 .8-1.7 1.7-1.7s1.7.8 1.7 1.7c0 .4-.1.7-.3 1-.7 1-.8 1.2-.8 1.6zM5 2.3c-1 0-1.7.8-1.7 1.8 0 .4.1.7.4 1.1.6.9.7 1 .7 1.4 0 .1 0 .1.1.1h1.3v-.1c0-.4.1-.6.7-1.5.2-.3.4-.7.4-1.1C6.7 3.1 6 2.3 5 2.3m.6 4.4H4.4c-.1 0-.1 0-.1-.1 0-.4-.1-.6-.7-1.4-.3-.4-.4-.8-.4-1.1 0-1 .8-1.8 1.8-1.8s1.8.8 1.8 1.8c0 .4-.1.8-.4 1.1-.6.8-.7 1-.7 1.4l-.1.1c.1 0 0 0 0 0M5 2c-1.1 0-2 .9-2 2 0 .4.1.8.4 1.2.6.9.7 1 .7 1.3 0 .1.1.4.3.4h1.2c.1 0 .2-.1.2-.1.1-.1.1-.2.1-.2 0-.3 0-.4.7-1.3.3-.4.4-.8.4-1.2C7 2.9 6.1 2 5 2m.6 5H4.4c-.3 0-.4-.3-.4-.4 0-.3 0-.4-.7-1.3-.2-.4-.3-.8-.3-1.2C3 2.9 3.9 2 5 2s2 .9 2 2.1c0 .4-.1.9-.4 1.2-.6.9-.6 1-.6 1.3 0 0 0 .2-.1.3-.1 0-.2.1-.3.1M5 2c-1.1 0-2.1.9-2.1 2.1 0 .4.1.9.4 1.2.6.9.7 1 .7 1.3 0 .1.1.4.4.4h1.2c.2 0 .2-.1.3-.1.1-.1.1-.3.1-.3 0-.3 0-.4.7-1.3.3-.4.4-.8.4-1.3 0-1.1-1-2-2.1-2m.6 5H4.4c-.3 0-.5-.2-.5-.4 0-.3 0-.4-.6-1.2-.3-.5-.4-.9-.4-1.3C2.9 2.9 3.9 2 5 2c1.2 0 2.1 1 2.1 2.1 0 .4-.1.9-.4 1.2-.6.9-.6 1-.6 1.2 0 0 0 .2-.1.3-.1.2-.2.2-.4.2m-.4 2h-.4l-.3-.2 1-.2-.3.4zm-.8-1.5h1.3v.1l-1.4.3v-.2c0-.1 0-.2.1-.2m-.1.7L5.7 8v.3l-1.4.2v-.3zm1.6-.8c0-.1-.1-.1-.2-.1H4.4c-.3 0-.4.3-.4.4v1.1l.6.4h.7l.6-.7V7.4"/><path class="st0" d="M4.4 7.6s-.1 0-.1.1v.2l1.4-.2v-.1H4.4zm-.1.4v-.3c0-.1.1-.2.1-.2h1.3v.1L4.3 8zm0 .2v.2l1.4-.2V8l-1.4.2zm0 .3v-.3L5.7 8v.3l-1.4.2zm.5.4h.4l.3-.3-.9.2.2.1zm.4.1h-.4l-.3-.2 1.1-.2-.4.4zm-.8-1.7c-.2 0-.3.2-.3.4v1.1l.6.4h.7l.6-.7v-.7s0-.2-.1-.3c0-.1-.1-.1-.2-.1l-1.3-.1zm.8 2h-.5l-.6-.5V7.7c0-.2.1-.4.4-.4h1.2c.1 0 .2.1.3.1v1l-.8.9c.1 0 .1 0 0 0"/><path class="st0" d="M4.4 7.6s-.1 0-.1.1v.2l1.3-.2v-.1H4.4zm-.1.4v-.3c0-.1.1-.2.2-.2h1.3v.1L4.3 8zm0 .3v.2l1.3-.2V8l-1.3.3zm0 .3v-.4l1.5-.3v.4l-1.5.3zm.5.3h.4l.2-.3-.8.2.2.1zm.4.1h-.4l-.4-.3 1.2-.2-.4.5zm-1.1-.3l.6.5h.6l.6-.7v-.8s0-.2-.1-.3c0 0-.1-.1-.2-.1H4.4c-.2 0-.3.2-.3.4v1zm1.1.6h-.5l-.6-.5V7.7c0-.2.1-.5.4-.5h1.2c.1 0 .2.1.3.1v1.1l-.6.8c-.1.1-.1.1-.2.1"/><path class="st0" d="M4.4 7.6s-.1 0 0 0l-.1.3 1.3-.2-1.2-.1zm-.1.3v-.2c0-.1.1-.1.1-.1h1.3v.1l-1.4.2zm.1-.4c-.1 0-.1.1-.1.2V8l1.5-.3v-.1h-.1l-1.3-.1zm-.2.5v-.3c0-.1.1-.2.2-.2h1.3v.2L4.2 8zm.1.3v.2l1.3-.2v-.2l-1.3.2zm0 .2v-.3L5.7 8v.2l-1.4.3zm0-.3v.3l1.5-.3V8l-1.5.2zm-.1.4v-.4l1.5-.3v.4l-1.5.3zm.6.3h.3l.2-.2-.6.1.1.1zm.4 0h-.4l-.2-.1.9-.2-.3.3zm-.4.1h.4l.3-.4-1 .1.3.3zm.4 0h-.4l-.4-.3 1.3-.2-.5.5zm-1.1-.3l.6.5h.5l.6-.7v-.8s0-.2-.1-.3c0 0-.1-.1-.2-.1H4.4c-.2 0-.3.2-.3.4v1zm1.1.5h-.5l-.6-.4V7.7c0-.2.1-.4.3-.4h1.2c.1 0 .2.1.2.1.1.1.1.3.1.3v.7l-.7.8zm-.8-2c-.2 0-.2.1-.3.2 0 .1-.1.2-.1.3v1.1l.6.4h.7l.6-.7v-.7s0-.2-.1-.3c0-.1-.1-.1-.3-.1l-1.1-.2zm.8 2.1h-.5l-.6-.5V7.7c0-.1 0-.2.1-.3.1-.1.2-.2.3-.2h1.2c.2 0 .2.1.3.1v1.1l-.6.8c-.1.1-.1.1-.2.1M2.5 4.1c0-.1-.1-.1-.1-.1h-.7c-.1-.1-.1 0-.1.1s.1.1.1.1h.7c.1 0 .1-.1.1-.1"/><path class="st0" d="M1.7 4c-.1 0-.1 0 0 0-.1.1 0 .1 0 .1h.7s.1 0 .1-.1c0 0 0-.1-.1-.1h-.7zm.7.2h-.7c-.1 0-.2-.1-.2-.2s.1-.2.2-.2h.7c.1 0 .2.1.2.2 0 .2-.1.2-.2.2"/><path class="st0" d="M1.7 4c-.1 0-.1 0 0 0-.1.1 0 .2 0 .2h.7s.1 0 .1-.1c0 0 0-.1-.1-.1h-.7zm.7.2h-.7c-.1 0-.2-.1-.2-.2s.1-.2.2-.2h.7c.1 0 .2.1.2.2s-.1.2-.2.2"/><path class="st0" d="M1.7 4h.7-.7zm.7.3h-.7c-.1 0-.2-.1-.2-.2s.1-.2.2-.2h.7c.1 0 .2.1.2.2s-.1.2-.2.2m5.9-.4h-.7c-.1 0-.1.1-.1.2s.1.1.1.1h.7c.1 0 .1-.1.1-.1 0-.1 0-.2-.1-.2"/><path class="st0" d="M7.6 4s-.1 0 0 0c-.1.1 0 .1 0 .1h.7s.1 0 .1-.1c0 0 0-.1-.1-.1h-.7zm.7.2h-.7c-.1 0-.2-.1-.2-.2s.1-.2.2-.2h.7c.1 0 .2.1.2.2 0 .2-.1.2-.2.2"/><path class="st0" d="M7.6 4s-.1 0 0 0c-.1.1 0 .2 0 .2h.7s.1 0 .1-.1c0 0 0-.1-.1-.1h-.7zm.7.2h-.7c-.1 0-.2-.1-.2-.2s.1-.2.2-.2h.7c.1 0 .2.1.2.2s-.1.2-.2.2"/><path class="st0" d="M7.6 4h.7-.7zm.7.3h-.7c-.1 0-.2-.1-.2-.2s.1-.2.2-.2h.7c.1 0 .2.1.2.2s-.1.2-.2.2M5 1.5c.1 0 .1-.1.1-.1V.9C5.1.8 5 .8 5 .8c-.1 0-.1.1-.1.1v.5c0 .1 0 .1.1.1"/><path class="st0" d="M5 .8s-.1.1 0 0l-.1.6s0 .1.1.1c0 0 .1 0 .1-.1L5 .8c.1.1 0 0 0 0m0 .8c-.1 0-.2-.1-.2-.2V.9c0-.1.1-.2.2-.2s.2.1.2.2v.5c0 .1-.1.2-.2.2"/><path class="st0" d="M5 .8s-.1.1 0 0l-.1.6s0 .1.1.1c0 0 .1 0 .1-.1L5 .8c.1.1 0 0 0 0m0 .7c-.1 0-.2-.1-.2-.2V.9c0-.1.1-.2.2-.2s.2.1.2.2v.5c0 .1-.1.1-.2.1"/><path class="st0" d="M5 .9v.5-.5zm0 .7c-.1 0-.2-.1-.2-.2V.9c0-.1.1-.2.2-.2s.2.1.2.2v.5c0 .1-.1.2-.2.2m-1.3.2l.1.1h.1c.1 0 .1-.1 0-.2l-.2-.3c0-.1-.1-.1-.2 0-.1 0-.1.1 0 .2l.2.2z"/><path class="st0" d="M3.7 1.8l.1-.1-.2-.3h-.1v.1l.2.3zm.1.1c-.1 0-.1 0-.2-.1l-.2-.3c0-.1 0-.2.1-.2s.2 0 .2.1l.2.3c.1 0 0 .1-.1.2z"/><path class="st0" d="M3.7 1.8s.1.1.1 0v-.1l-.2-.3s-.1-.1-.1 0c0 0-.1.1 0 .1l.2.3zm.1.1c-.1 0-.1 0-.1-.1l-.3-.3c0-.1 0-.2.1-.2s.2 0 .2.1l.2.3v.1l-.1.1z"/><path class="st0" d="M3.7 1.7l-.1-.3.1.3zm.1.2c-.1 0-.1 0-.2-.1l-.2-.3c-.1-.1 0-.2.1-.3.1-.1.2 0 .3.1l.2.3v.2c0 .1-.1.1-.1.1h-.1m2.4-.1h.2l.2-.3v-.2h-.2l-.3.4s0 .1.1.1"/><path class="st0" d="M6.2 1.8l.3-.3h-.1l-.2.3zm0 .1c-.1 0-.2-.1-.2-.1v-.1l.2-.3c0-.1.2-.1.2-.1l.1.1v.1l-.1.3c0 .1-.1.1-.2.1"/><path class="st0" d="M6.4 1.3l-.2.4v.1h.1l.2-.3-.1-.2zm-.2.6c-.1 0-.1-.1-.2-.1v-.1l.2-.3c0-.1.1-.1.2-.1l.1.1v.1l-.1.3c0 .1-.1.1-.2.1"/><path class="st0" d="M6.4 1.4l-.2.3.2-.3zm-.2.5h-.1L6 1.8v-.2l.2-.3.1-.1h.2l.1.1v.2l-.2.3c0 .1-.1.1-.2.1m-4 .7l.5.3h.1s.1 0 .1-.1v-.2l-.6-.2h-.2c0 .1 0 .1.1.2"/><path class="st0" d="M2.2 2.5l.5.3h.1v-.1l-.5-.3-.1.1zm.6.4l-.6-.3-.1-.1v-.1c0-.1.2-.1.2-.1l.5.3c.1 0 .1.2.1.2 0 .1-.1.1-.1.1"/><path class="st0" d="M2.2 2.5l.5.3h.1v-.1l-.5-.3h-.1v.1m.6.4l-.6-.3c-.1 0-.1-.1-.1-.2s.1-.1.2-.1l.5.3c.1 0 .1.1.1.2s-.1.1-.1.1"/><path class="st0" d="M2.2 2.5l.5.3-.5-.3zm.6.5h-.1l-.6-.4-.1-.1v-.2c.1-.1.2-.1.3-.1l.5.3.1.1v.2c0 .1-.1.2-.1.2m5 2.5l-.5-.3h-.2v.2l.5.3h.1s.1 0 .1-.1c.1 0 .1-.1 0-.1"/><path class="st0" d="M7.3 5.3v.1l.5.3h.1v-.1l-.6-.3zm.5.5l-.6-.3-.1-.1v-.1l.1-.1h.1l.5.3c.2 0 .2.1.1.2 0 .1-.1.1-.1.1"/><path class="st0" d="M7.3 5.2l-.1.1.5.3h.1v-.1l-.5-.3zm.5.6l-.6-.3-.1-.1v-.1c0-.1.1-.1.2-.1l.5.3c.1 0 .1.1.1.2l-.1.1"/><path class="st0" d="M7.3 5.3l.5.3-.5-.3zm.5.5h-.1l-.5-.3-.1-.1v-.2l.1-.1h.2l.5.3c.1.1.1.2.1.3-.1.1-.1.1-.2.1m-5.1-.6l-.5.3c-.1 0-.1.1 0 .2l.1.1h.1l.5-.3c.1 0 .1-.1 0-.2s-.2-.1-.2-.1"/><path class="st0" d="M2.7 5.3l-.5.3v.1h.1l.5-.3-.1-.1zm-.5.5c-.1 0-.1 0-.2-.1 0-.1 0-.2.1-.2l.5-.3h.1s.1 0 .1.1v.1s0 .1-.1.1l-.5.3z"/><path class="st0" d="M2.7 5.2l-.5.3s-.1.1 0 .1c0 0 .1.1.1 0l.5-.3-.1-.1zm-.5.6c-.1 0-.1 0-.1-.1s0-.2.1-.2l.5-.3h.1s.1 0 .1.1v.1s0 .1-.1.1l-.6.3z"/><path class="st0" d="M2.7 5.3l-.5.3.5-.3zm-.5.5c-.1 0-.1 0-.2-.1 0-.1 0-.2.1-.3l.5-.3h.2c.1 0 .1.1.1.1v.2c0 .1-.1.1-.1.1l-.5.3h-.1m5-2.9l.6-.3c.1 0 .1-.1 0-.2 0-.1-.1-.1-.2 0l-.4.3c-.1 0-.1.1 0 .2"/><path class="st0" d="M7.7 2.4l-.5.3v.1h.1l.5-.3-.1-.1zm-.5.5c-.1 0-.1 0-.2-.1 0-.1 0-.2.1-.2l.5-.3h.1s.1 0 .1.1 0 .2-.1.2l-.5.3z"/><path class="st0" d="M7.7 2.4l-.5.3v.1s.1.1.1 0l.5-.3-.1-.1zm-.5.5c-.1 0-.1 0-.1-.1v-.1s0-.1.1-.1l.5-.3h.1s.1 0 .1.1 0 .2-.1.2l-.6.3z"/><path class="st0" d="M7.7 2.4l-.5.3.5-.3zm-.5.6s-.1-.1-.2-.1v-.2c0-.1.1-.1.1-.1l.5-.3h.2c.1 0 .1.1.1.1v.2c0 .1-.1.1-.1.1l-.5.2c0 .1 0 .1-.1.1"/></svg>