<svg xmlns="http://www.w3.org/2000/svg" width="22.444" height="18" viewBox="0 0 22.444 18"><path d="M22.444 2.334a2.427 2.427 0 01-2.228.016c.939-.562.982-.956 1.321-2.019a9.128 9.128 0 01-2.886 1.1 4.549 4.549 0 00-7.743 4.149A12.9 12.9 0 011.542.831 4.549 4.549 0 002.948 6.9 4.535 4.535 0 01.89 6.331v.057a4.548 4.548 0 003.646 4.456 4.561 4.561 0 01-2.053.078 4.551 4.551 0 004.245 3.156A9.134 9.134 0 010 15.959 12.862 12.862 0 006.965 18 12.839 12.839 0 0019.893 5.071c0-.2 0-.392-.012-.588a9.707 9.707 0 002.563-2.149" fill="#fff" opacity=".54"/></svg>